# xmcd
#
# Track frame offsets: 
#        150
#        19305
#        31657
#        46551
#        63831
#        80964
#        93879
#        106194
#        120615
#        132575
#        143346
#        160690
#        180059
#        197732
#
# Disc length: 2783 seconds
#
# Revision: 2
# Processed by: cddbd v1.5.2PL0 Copyright (c) Steve Scherf et al.
# Submitted via: ExactAudioCopyFreeDBPlugin 1.0
#
DISCID=a30add0e
DTITLE=Kvitnes, Heltberg, Lønhøiden and Corazón - Manda' Morra' (14 sang
DTITLE=er av Stein Ove Berg)
DYEAR=2005
DGENRE=Vise/Country
TTITLE0=Manda' morra' blues
TTITLE1=La meg være stille
TTITLE2=Om jeg noensinne kommer hit igjen
TTITLE3=Prøv å se meg som elva
TTITLE4=Stine Maris vise
TTITLE5=Visa di
TTITLE6=Vis meg et sted
TTITLE7=Ikke gråt om det er vinter og det snør
TTITLE8=Den siste visa
TTITLE9=La dette bli min sang
TTITLE10=La meg dra dit igjen
TTITLE11=Hu som du har
TTITLE12=Kommer nå
TTITLE13=Mi lyre
EXTD=YEAR: 2005
EXTT0=
EXTT1=
EXTT2=
EXTT3=
EXTT4=
EXTT5=
EXTT6=
EXTT7=
EXTT8=
EXTT9=
EXTT10=
EXTT11=
EXTT12=
EXTT13=
PLAYORDER=
